<?xml version="1.0" standalone="no"?>
<!DOCTYPE svg PUBLIC "-//W3C//DTD SVG 20010904//EN"
 "http://www.w3.org/TR/2001/REC-SVG-20010904/DTD/svg10.dtd">
<svg version="1.0" xmlns="http://www.w3.org/2000/svg"
 width="1280.000000pt" height="640.000000pt" viewBox="0 0 1280.000000 640.000000"
 preserveAspectRatio="xMidYMid meet">
<metadata>
Created by potrace 1.15, written by Peter Selinger 2001-2017
</metadata>
<g transform="translate(0.000000,640.000000) scale(0.100000,-0.100000)"
fill="#9999FF" stroke="none">
<path d="M7598 5727 c-80 -42 -219 -130 -343 -217 -79 -56 -206 -116 -292
-137 -59 -15 -103 -41 -338 -199 -398 -266 -484 -330 -560 -414 -144 -160
-438 -449 -548 -540 l-116 -95 34 -15 c36 -15 46 -30 21 -30 -8 0 -28 -12 -46
-26 l-31 -26 -57 49 c-31 28 -58 59 -60 71 -2 14 -13 23 -35 28 -40 8 -76 34
-77 54 0 8 -21 27 -45 42 -25 15 -49 38 -54 50 -15 38 -161 173 -226 208 -33
19 -81 51 -106 72 -25 21 -50 38 -56 38 -14 0 -106 100 -169 182 -27 35 -51
64 -55 66 -4 2 -83 61 -176 131 -210 159 -224 167 -300 176 l-62 7 -163 -93
c-90 -50 -226 -131 -303 -179 -77 -48 -167 -102 -200 -119 -168 -89 -230 -135
-375 -281 -153 -154 -256 -241 -405 -342 -49 -34 -115 -89 -147 -123 -31 -33
-81 -80 -112 -104 -31 -24 -56 -51 -56 -61 0 -31 -511 -535 -721 -713 -36 -30
-115 -86 -175 -124 l-109 -68 -45 23 c-54 28 -149 27 -177 -1 -26 -25 -22 -85
6 -108 42 -34 156 -14 212 37 14 13 21 12 55 -3 l39 -16 -32 -7 c-75 -17 -110
-67 -79 -115 9 -13 25 -29 35 -35 18 -9 18 -11 -9 -40 -51 -54 -48 -105 8
-134 45 -23 192 -49 251 -44 46 4 59 10 84 38 29 32 31 33 108 31 43 -1 87 2
97 8 24 13 46 64 39 91 -3 11 -2 20 3 20 4 0 45 -17 91 -38 46 -21 143 -63
216 -92 l132 -54 -31 -15 c-62 -30 -89 -115 -46 -145 17 -12 20 -18 10 -28
-35 -35 22 -108 86 -108 38 0 82 48 82 91 0 26 3 29 34 29 31 0 34 -3 40 -34
18 -95 171 -128 271 -58 27 19 46 43 59 77 11 28 21 51 22 53 1 2 144 -26 317
-62 173 -36 337 -66 364 -66 27 0 53 -4 58 -9 6 -5 27 -14 48 -21 l38 -12 -41
-36 c-33 -30 -43 -46 -47 -80 l-6 -44 161 4 c119 2 163 0 166 -9 11 -28 61
-47 135 -53 l76 -5 -40 -25 c-22 -13 -58 -41 -81 -62 -42 -38 -107 -68 -150
-68 -27 0 -94 -30 -94 -42 0 -4 -14 -8 -31 -8 -16 0 -28 -4 -25 -8 3 -5 -16
-7 -43 -4 -32 3 -58 -1 -79 -12 -31 -16 -69 -62 -60 -71 9 -9 112 -25 164 -25
67 0 108 30 106 78 0 18 2 32 5 32 3 0 68 -22 143 -50 75 -28 142 -50 148 -50
25 0 10 -18 -27 -35 -59 -26 -105 -78 -105 -118 0 -56 9 -67 54 -67 24 0 78
-16 138 -41 66 -28 118 -43 162 -46 40 -4 74 -13 88 -24 35 -27 139 -35 200
-15 54 18 102 58 102 86 0 23 -41 59 -86 75 -21 7 -40 18 -42 23 -7 23 371
-92 564 -171 131 -54 286 -135 279 -147 -11 -17 -180 -80 -231 -86 -47 -6 -54
-10 -54 -29 0 -26 43 -68 91 -88 19 -8 91 -25 160 -38 120 -22 125 -24 121
-46 -7 -35 40 -87 103 -119 104 -50 254 -28 308 47 27 37 35 109 13 124 -13
10 -14 14 -3 24 11 8 33 6 93 -9 104 -26 182 -34 238 -26 44 7 46 8 46 42 0
33 2 34 38 34 74 1 143 41 273 157 26 24 50 43 53 43 3 0 6 -10 6 -22 1 -34
34 -100 66 -130 97 -90 358 -141 536 -105 137 29 302 104 405 186 65 52 92
153 93 351 0 120 22 301 42 349 l13 33 54 -91 c66 -110 148 -212 199 -246 26
-17 72 -30 157 -45 65 -12 134 -28 152 -37 36 -17 73 -57 73 -79 0 -20 66 -25
254 -22 l169 3 -37 26 -37 26 40 7 c23 3 57 20 83 41 60 48 103 65 178 72 84
8 104 18 178 97 34 36 66 66 72 66 5 0 10 10 10 23 0 14 12 32 30 45 29 22 30
25 30 105 0 106 -26 200 -95 344 -67 141 -99 187 -199 293 -97 102 -139 178
-156 280 -7 41 -19 90 -26 109 -17 40 -13 47 15 31 20 -10 21 -8 21 31 l0 42
73 -6 c59 -5 75 -10 90 -29 9 -13 37 -45 61 -73 25 -27 108 -125 186 -218 161
-192 303 -343 373 -399 41 -32 56 -38 96 -38 59 0 108 16 121 40 8 15 19 17
79 12 112 -8 156 37 91 91 -16 14 -30 28 -30 30 0 2 23 7 52 9 55 6 78 24 78
63 0 20 13 25 143 54 78 17 159 35 179 40 25 6 40 5 48 -3 7 -7 59 -11 148
-10 192 0 268 25 285 92 3 15 -1 27 -15 36 -19 14 -19 15 20 26 23 6 106 26
184 44 l143 33 3 -23 c2 -17 10 -24 25 -25 12 0 78 -7 147 -16 69 -8 152 -16
185 -16 109 -2 176 53 129 104 -18 20 -17 20 10 10 15 -6 32 -11 37 -11 17 0
-1 62 -24 88 -19 20 -19 22 -3 22 10 0 25 -10 35 -21 14 -18 31 -22 108 -26
78 -5 92 -8 96 -24 7 -25 47 -39 112 -39 66 0 97 11 144 52 39 33 60 70 61
105 0 27 -62 63 -109 63 -16 0 -45 9 -64 20 -19 11 -47 20 -63 19 -16 -1 -118
34 -233 80 -249 100 -257 104 -280 142 -10 16 -55 52 -101 79 -109 67 -236
165 -376 292 -99 89 -132 112 -257 176 -78 41 -155 82 -172 91 -16 10 -49 24
-72 31 -35 11 -43 18 -43 37 0 26 -17 31 -26 8 -5 -12 -15 -10 -57 12 -86 43
-264 163 -281 189 -9 13 -22 24 -29 24 -6 0 -57 27 -112 59 -193 114 -266 152
-298 153 -18 0 -84 -16 -148 -36 -63 -20 -121 -36 -129 -36 -30 0 -186 145
-352 327 -26 29 -78 69 -115 89 -249 138 -647 448 -949 737 -44 42 -85 77 -90
77 -5 0 -34 22 -64 49 -43 39 -66 51 -109 60 -79 16 -83 15 -173 -32z m-1615
-1798 c103 -33 187 -64 187 -67 0 -4 -17 -17 -38 -30 -20 -12 -75 -51 -122
-86 l-85 -63 -37 23 c-20 13 -94 53 -165 88 -169 86 -168 86 -111 84 27 0 53
-6 59 -14 15 -19 122 -18 158 1 28 14 41 33 41 61 0 8 -20 24 -45 35 -42 19
-55 29 -37 29 4 0 91 -27 195 -61z m3719 -1411 c-9 -9 -15 -9 -24 0 -9 9 -7
12 12 12 19 0 21 -3 12 -12z m-5442 -216 c0 -5 -11 -19 -25 -32 -19 -18 -39
-24 -95 -28 -70 -5 -70 -5 -70 21 0 24 3 26 68 32 37 3 74 8 82 9 29 7 40 6
40 -2z"/>
<path d="M10335 4230 c-18 -20 -17 -20 25 -20 42 0 43 0 25 20 -10 11 -21 20
-25 20 -4 0 -15 -9 -25 -20z"/>
<path d="M10554 4058 c-10 -16 34 -50 60 -46 15 2 22 12 24 31 3 25 1 27 -37
27 -22 0 -43 -5 -47 -12z"/>
<path d="M12508 3089 c-10 -5 -18 -17 -18 -24 0 -12 17 -15 80 -15 71 0 80 2
80 19 0 14 -10 20 -46 25 -62 8 -76 7 -96 -5z"/>
<path d="M612 2999 c-55 -22 18 -56 95 -44 37 5 43 10 43 31 0 23 -3 24 -57
23 -32 0 -69 -4 -81 -10z"/>
<path d="M12720 2990 c0 -17 7 -20 40 -20 33 0 40 3 40 20 0 17 -7 20 -40 20
-33 0 -40 -3 -40 -20z"/>
<path d="M12437 2943 c-4 -3 -7 -17 -7 -31 0 -24 2 -24 52 -20 50 5 85 29 72
49 -6 10 -108 12 -117 2z"/>
<path d="M645 2868 c-11 -6 -25 -17 -32 -25 -10 -13 -15 -12 -38 3 -24 15 -28
16 -42 2 -34 -34 -39 -173 -7 -185 37 -14 134 49 134 88 0 16 8 19 58 19 61 0
82 11 82 45 0 14 -14 26 -49 43 -54 24 -76 27 -106 10z"/>
<path d="M334 2846 c-26 -12 -44 -33 -44 -52 0 -2 29 -4 63 -4 49 0 68 4 80
18 23 25 21 32 -7 32 -14 0 -28 5 -31 10 -8 13 -23 12 -61 -4z"/>
<path d="M11820 2802 c0 -10 5 -23 12 -30 9 -9 3 -12 -30 -12 -29 0 -48 -6
-63 -21 -33 -33 -8 -49 91 -58 89 -8 98 -3 86 43 -4 18 -1 25 14 29 25 7 25
18 0 45 -28 29 -110 32 -110 4z"/>
<path d="M12050 2765 c-21 -25 9 -40 73 -36 21 1 23 21 1 21 -8 0 -22 7 -30
15 -19 19 -28 19 -44 0z"/>
<path d="M12 2747 c-12 -14 -8 -17 25 -26 55 -15 108 -14 123 4 19 22 9 27
-67 32 -54 4 -71 2 -81 -10z"/>
<path d="M775 2711 c-25 -28 -13 -51 27 -50 18 0 42 4 53 9 l20 8 -20 7 c-11
5 -29 16 -41 27 -20 18 -21 18 -39 -1z"/>
<path d="M11198 2620 c-27 -16 -22 -48 7 -56 26 -7 35 -24 11 -24 -7 0 -19 -7
-27 -16 -18 -22 3 -34 64 -34 35 0 53 6 68 21 19 19 28 20 88 14 69 -7 80 -3
94 36 10 29 -8 37 -83 40 -41 1 -79 6 -85 10 -18 13 -119 20 -137 9z"/>
<path d="M10592 2580 c-25 -11 -45 -52 -36 -75 15 -37 159 -44 210 -10 27 18
32 56 9 75 -19 16 -152 23 -183 10z"/>
<path d="M1716 2537 c-12 -9 -17 -23 -14 -42 2 -23 13 -35 46 -53 52 -29 97
-24 132 13 l23 25 -22 24 c-38 40 -130 59 -165 33z"/>
<path d="M11688 2463 c18 -2 45 -2 60 0 15 2 0 4 -33 4 -33 0 -45 -2 -27 -4z"/>
<path d="M11080 2451 c0 -5 12 -24 26 -41 25 -30 29 -31 93 -28 63 3 66 4 66
28 0 16 -8 29 -25 37 -29 15 -160 18 -160 4z"/>
<path d="M10578 2418 c-3 -7 -18 -12 -34 -13 -22 0 -30 -5 -32 -22 -3 -21 1
-23 40 -23 56 0 88 21 72 47 -14 22 -40 29 -46 11z"/>
<path d="M1868 2364 c-30 -16 -52 -49 -43 -63 11 -19 63 -22 93 -7 41 21 48
44 17 56 -14 5 -25 14 -25 20 0 13 -10 12 -42 -6z"/>
<path d="M10823 2369 c-55 -16 -37 -29 38 -29 62 0 70 2 67 18 -4 20 -55 26
-105 11z"/>
<path d="M10233 2350 c-12 -5 -26 -18 -32 -28 -8 -15 -26 -21 -78 -27 -111
-12 -158 -45 -99 -70 42 -18 145 -19 236 -4 36 6 110 14 165 18 78 5 100 9
100 21 0 8 -18 19 -44 27 -24 7 -49 20 -55 28 -6 9 -36 20 -66 25 -30 5 -66
11 -80 14 -14 3 -35 1 -47 -4z"/>
<path d="M1676 2299 c-94 -15 -127 -40 -106 -79 8 -15 5 -20 -19 -28 -38 -13
-71 -47 -71 -72 0 -53 72 -75 163 -49 69 19 105 78 50 80 l-28 1 25 8 c14 4
51 8 83 9 l57 1 0 39 c0 42 -11 56 -53 66 -15 4 -27 13 -27 21 0 15 -2 15 -74
3z"/>
<path d="M1201 2211 c-11 -7 -9 -12 10 -24 54 -35 116 -29 139 13 10 19 8 20
-62 20 -40 0 -79 -4 -87 -9z"/>
<path d="M3051 2170 c-52 -16 -98 -35 -102 -42 -13 -21 19 -46 88 -69 71 -23
120 -21 177 8 38 19 46 30 46 66 0 25 -3 27 -45 27 -38 0 -45 3 -45 20 0 25
-5 25 -119 -10z"/>
<path d="M2233 2173 c-7 -2 -13 -11 -13 -18 0 -14 30 -25 73 -25 22 0 27 4 27
25 0 22 -4 25 -37 24 -21 0 -44 -3 -50 -6z"/>
<path d="M2605 2150 c-11 -17 26 -59 60 -69 18 -5 45 -6 59 -4 36 7 31 40 -9
64 -33 19 -100 25 -110 9z"/>
<path d="M10133 2098 c-31 -8 -63 -41 -63 -64 0 -10 74 -33 160 -50 19 -4 57
-19 83 -34 l48 -27 -26 -19 c-33 -24 -27 -42 27 -77 62 -40 99 -44 155 -16 51
25 96 80 86 105 -3 8 -27 26 -54 40 -27 13 -49 29 -49 34 0 16 -61 80 -91 96
-33 17 -73 18 -101 3 -13 -7 -28 -8 -46 -1 -42 16 -94 20 -129 10z"/>
<path d="M10737 1963 c-41 -46 -10 -73 82 -73 57 0 61 1 61 23 0 33 -29 56
-81 63 -36 5 -47 2 -62 -13z"/>
<path d="M3324 1946 c-30 -13 -44 -33 -44 -62 0 -11 20 -14 100 -14 l100 0 0
29 c0 26 -5 30 -47 40 -27 7 -55 14 -63 16 -8 2 -29 -2 -46 -9z"/>
<path d="M2697 1904 c-21 -14 -35 -29 -32 -35 11 -16 61 -10 89 12 60 47 9 68
-57 23z"/>
<path d="M11120 1900 l-21 -30 81 0 c52 0 79 4 75 10 -3 6 -16 10 -28 10 -12
0 -33 9 -47 20 -33 26 -35 25 -60 -10z"/>
<path d="M2983 1838 c-36 -9 -63 -41 -63 -75 0 -17 7 -23 36 -29 35 -6 101 0
112 11 5 5 -32 81 -47 96 -3 3 -20 2 -38 -3z"/>
<path d="M10600 1831 c-17 -5 -26 -15 -28 -33 -5 -39 29 -58 106 -58 61 0 63
1 57 23 -4 12 -16 30 -28 39 -12 10 -27 22 -34 28 -14 11 -36 11 -73 1z"/>
<path d="M10810 1812 l-23 -18 29 -23 c17 -14 38 -21 51 -18 19 4 23 0 23 -23
0 -31 15 -40 65 -40 47 0 67 22 54 60 -12 33 -36 44 -77 35 -22 -4 -33 0 -50
20 -26 30 -42 31 -72 7z"/>
<path d="M3138 1777 c-16 -13 -28 -31 -28 -40 0 -15 7 -18 43 -15 41 3 42 4
42 38 0 43 -19 48 -57 17z"/>
<path d="M10027 1780 c-117 -20 -162 -43 -173 -87 -4 -14 -3 -33 3 -42 15 -26
80 -53 154 -65 51 -8 68 -14 64 -24 -3 -7 -2 -24 1 -38 6 -24 7 -24 129 -24
l124 0 12 56 c10 43 10 63 1 88 -7 18 -12 51 -12 73 l0 40 -57 16 c-93 25
-132 26 -246 7z"/>
<path d="M2406 1730 c-43 -52 -36 -60 49 -60 41 0 75 4 75 9 0 5 3 16 6 24 7
18 -27 42 -72 52 -27 5 -35 1 -58 -25z"/>
<path d="M9620 1687 c-127 -61 -159 -77 -210 -104 -30 -16 -110 -58 -177 -93
-68 -35 -123 -67 -123 -71 0 -4 9 -17 19 -30 18 -23 25 -24 138 -23 87 1 130
5 163 18 25 10 61 16 80 14 63 -6 215 -3 233 4 14 6 17 21 17 96 0 92 -16 160
-47 194 -20 23 -37 22 -93 -5z"/>
<path d="M11348 1626 c-39 -60 -36 -68 17 -49 38 13 45 19 45 42 0 24 -15 51
-29 51 -4 0 -18 -20 -33 -44z"/>
<path d="M11452 1658 c-31 -31 6 -68 66 -68 l42 0 0 40 0 40 -48 0 c-26 0 -53
-5 -60 -12z"/>
<path d="M2747 1623 c-13 -12 -7 -21 22 -31 41 -15 101 3 101 29 0 10 -113 12
-123 2z"/>
<path d="M10573 1573 c-30 -4 -33 -8 -33 -37 0 -32 2 -34 42 -40 44 -7 68 8
68 42 0 14 -29 43 -40 40 -3 -1 -20 -3 -37 -5z"/>
<path d="M11013 1548 c-16 -17 -23 -32 -17 -37 12 -11 212 3 226 17 21 21 -40
46 -114 47 -62 1 -71 -2 -95 -27z"/>
<path d="M2353 1458 c-20 -10 -32 -28 -18 -28 2 0 30 -7 61 -15 66 -17 119 -8
149 25 18 20 18 20 -32 20 -28 0 -70 2 -94 5 -24 3 -54 0 -66 -7z"/>
<path d="M3726 1420 c-51 -10 -78 -42 -74 -89 l3 -36 58 1 c104 2 202 58 178
102 -15 29 -83 38 -165 22z"/>
<path d="M3385 1395 c-44 -44 -29 -65 46 -65 29 0 47 7 64 25 31 30 31 39 0
53 -42 19 -83 14 -110 -13z"/>
<path d="M7994 1281 c-24 -11 -45 -60 -37 -89 3 -14 -2 -21 -17 -25 -18 -5
-21 -11 -18 -54 l3 -48 98 -8 c117 -10 161 -4 193 28 36 36 30 52 -23 68 l-48
14 58 29 c31 15 57 31 57 35 0 4 -21 18 -47 30 -52 26 -179 37 -219 20z m130
-136 c-10 -8 -23 -14 -29 -14 -5 0 -1 6 9 14 11 8 24 15 30 15 5 0 1 -7 -10
-15z"/>
<path d="M10072 1208 c3 -36 7 -43 28 -48 40 -10 80 8 80 35 0 30 -35 55 -78
55 -33 0 -33 0 -30 -42z"/>
<path d="M8623 1208 c-64 -25 -131 -81 -149 -125 -8 -18 -14 -52 -14 -77 l0
-44 165 -7 c91 -4 179 -5 195 -1 21 4 30 2 30 -8 0 -21 256 -32 301 -13 46 19
68 46 71 87 3 34 3 34 -47 42 -27 4 -70 14 -94 23 -47 16 -94 18 -126 6 -24
-10 -55 12 -96 68 -16 22 -42 47 -58 56 -41 21 -115 18 -178 -7z"/>
<path d="M10220 1125 c0 -10 -10 -15 -34 -15 -51 0 -62 -21 -36 -68 28 -49 52
-64 106 -64 58 0 64 6 64 58 0 37 -6 51 -29 75 -31 31 -71 39 -71 14z"/>
<path d="M4798 1073 l-31 -32 34 -20 c48 -30 97 -37 128 -20 20 11 27 24 29
56 l3 41 -66 4 c-63 3 -67 2 -97 -29z"/>
<path d="M9843 1075 c-27 -19 -47 -72 -30 -82 7 -4 53 -9 104 -11 84 -4 92 -3
102 16 16 31 -2 68 -40 81 -45 15 -111 14 -136 -4z"/>
<path d="M9503 1030 c-26 -11 -43 -40 -43 -74 0 -26 1 -26 74 -26 64 0 76 3
100 25 14 13 26 31 26 40 0 33 -104 56 -157 35z"/>
<path d="M4438 992 c-32 -19 -30 -45 5 -75 19 -16 62 -17 90 0 14 8 7 53 -13
73 -24 24 -45 24 -82 2z"/>
<path d="M4290 982 c-29 -13 -64 -42 -58 -47 10 -10 87 17 104 37 16 17 16 18
-7 17 -13 0 -31 -3 -39 -7z"/>
<path d="M6295 927 c-9 -15 -15 -33 -12 -42 7 -15 99 -65 160 -84 24 -8 37
-19 37 -30 0 -18 -40 -60 -75 -79 -18 -10 -15 -13 30 -33 74 -34 173 -31 293
10 51 17 109 40 130 50 l37 20 -67 1 c-37 0 -79 5 -95 11 -28 11 -28 11 25 25
62 16 181 62 200 77 6 5 12 13 12 18 0 16 -59 39 -98 39 -22 0 -59 7 -83 15
-32 12 -104 18 -260 22 l-217 6 -17 -26z"/>
<path d="M5025 900 c-3 -5 -15 -10 -26 -10 -22 0 -23 -1 -7 -35 9 -19 19 -25
45 -25 33 0 46 21 22 36 -6 3 -9 15 -6 25 5 20 -17 27 -28 9z"/>
<path d="M7745 856 c-38 -16 -53 -35 -61 -74 -6 -30 -4 -33 32 -48 22 -9 64
-17 96 -18 72 -1 100 21 96 73 -3 31 -9 39 -48 58 -52 25 -74 27 -115 9z"/>
<path d="M5881 797 c-37 -19 -36 -34 5 -47 40 -13 140 -9 170 8 15 8 12 13
-24 31 -46 23 -114 27 -151 8z"/>
<path d="M6090 730 c-19 -12 72 -12 110 0 19 6 10 8 -35 9 -33 0 -67 -4 -75
-9z"/>
<path d="M5360 702 c0 -10 45 -32 65 -32 8 0 26 5 40 12 18 8 22 14 13 20 -17
10 -118 10 -118 0z"/>
</g>
</svg>
